Coordinates
version=1
nRows=13
nColumns=34
inDegrees=yes

Units are S.I. units (second, meters, Newtons, ...)
If the header above contains a line with 'inDegrees', this indicates whether rotational values are in degrees (yes) or radians (no).

endheader
time	pelvis_tilt	pelvis_list	pelvis_rotation	pelvis_tx	pelvis_ty	pelvis_tz	hip_flexion_r	hip_adduction_r	hip_rotation_r	knee_angle_r	ankle_angle_r	subtalar_angle_r	mtp_angle_r	hip_flexion_l	hip_adduction_l	hip_rotation_l	knee_angle_l	ankle_angle_l	subtalar_angle_l	mtp_angle_l	lumbar_extension	lumbar_bending	lumbar_rotation	arm_flex_r	arm_add_r	arm_rot_r	elbow_flex_r	pro_sup_r	arm_flex_l	arm_add_l	arm_rot_l	elbow_flex_l	pro_sup_l
      3.71666670	      8.55317360	    -10.77194563	      0.24587864	      0.52172309	      0.92519774	     -0.12016043	     46.28890270	      4.03995341	    -14.42940160	     88.79537831	      8.28695785	      2.77960065	      0.00000000	     -3.33569501	     -9.16722908	    -15.10886575	     13.25681291	     16.90799095	     -0.58429697	      0.00000000	     -3.71209343	      2.32653209	      1.25614412	     62.11168940	      9.71350771	     65.48504749	    113.18774352	     92.12159960	     43.05000349	      0.72703874	     41.28054274	    112.03443226	     80.72068097
      3.73333330	      8.29758692	     -9.85447244	      0.58021738	      0.52274953	      0.92692571	     -0.11952910	     42.54238707	      4.16075023	    -13.26879068	     85.07829268	      7.62130025	      2.89730793	      0.00000000	     -3.06603621	     -8.23962310	    -14.53514846	     13.13040496	     16.43349170	     -0.21854451	      0.00000000	     -3.55929253	      1.50547599	      1.02209171	     62.29152314	     10.23336685	     64.85124185	    112.69217578	     92.24691336	     43.65597818	      0.27872198	     41.55622000	    111.84270934	     80.98580723
      3.75000000	      7.89336872	     -8.76711794	      0.97146618	      0.52547408	      0.92154954	     -0.12030695	     38.96856020	      3.89258664	    -12.10741538	     81.39209249	      7.44884898	      2.95129733	      0.00000000	     -2.66435509	     -7.07425144	    -13.71164238	     13.07052605	     16.83755924	      0.31264897	      0.00000000	     -3.00071272	      0.58083669	      0.87231533	     62.52050132	     10.33389985	     64.43374769	    111.94409833	     92.38161928	     44.16297988	      0.12868569	     41.71072176	    110.87531106	     81.19731877
      3.76666670	      7.30587730	     -7.39771580	      1.26773327	      0.52581319	      0.91874810	     -0.12019144	     35.64081732	      3.34241904	    -10.84947431	     76.94123292	      7.91715230	      3.45640416	      0.00000000	     -1.98187915	     -5.61513358	    -13.36501745	     13.31055904	     16.95182260	      0.56733836	      0.00000000	     -2.32382341	     -0.68357160	      1.11184785	     62.72573967	     10.09697980	     63.99753165	    111.46772214	     92.45962409	     44.53971369	     -0.01859200	     41.81964434	    110.39234154	     81.32233160
      3.78333330	      6.76025321	     -6.19886222	      1.45793034	      0.52754429	      0.92094725	     -0.11955929	     32.23643126	      2.90025620	     -9.75606615	     72.01884863	      8.39475861	      3.94642352	      0.00000000	     -1.56992320	     -4.35464627	    -13.30087814	     13.19402608	     16.09617130	      0.86881503	      0.00000000	     -1.47958699	     -1.81043571	      1.03842530	     62.25356187	     10.10974746	     63.96171769	    111.66828778	     92.55921550	     44.52505441	      0.09175124	     42.50141972	    110.70470810	     81.46615617
      3.80000000	      6.49655588	     -4.95546733	      1.42299175	      0.52587325	      0.92034514	     -0.11892974	     28.78725883	      2.31596320	     -8.58742330	     66.84072801	      9.00025708	      4.29029848	      0.00000000	     -1.30652087	     -2.98347819	    -13.02019348	     13.38339967	     15.44026455	      0.78674181	      0.00000000	     -1.11186297	     -3.11341496	      0.73251929	     62.07731412	     10.48609548	     63.80706698	    112.14732844	     92.75346216	     44.90677934	     -0.35564538	     43.51427714	    110.93314757	     81.74197719
      3.81666670	      5.77908564	     -3.78805040	      1.24787186	      0.52812437	      0.91958417	     -0.11940074	     26.03440377	      1.61643516	     -7.56640958	     61.57734480	      9.77632927	      4.07478340	      0.00000000	     -0.61448306	     -1.64544620	    -13.07172684	     13.61168166	     15.29327599	      0.76522025	      0.00000000	     -0.22393203	     -4.21750707	      0.73611043	     61.89185359	     10.25832233	     64.07502935	    112.13406919	     92.82058781	     44.64258119	     -0.14432087	     44.09695252	    111.75554187	     81.84828621
      3.83333330	      5.43923259	     -2.80224736	      1.21889876	      0.52839009	      0.91636373	     -0.11909783	     22.99138270	      0.76688135	     -6.93921775	     56.40295664	     10.56760579	      3.56685484	      0.00000000	     -0.65250757	     -0.42758705	    -12.98397678	     12.92770781	     14.65728227	      0.74730050	      0.00000000	     -0.04884351	     -4.96099597	      0.48165148	     62.07153346	     10.51346783	     64.29727553	    112.76266660	     93.03840535	     45.13850694	     -0.62583243	     45.04061313	    113.18363774	     82.22996329
      3.85000000	      4.58203363	     -1.93858650	      1.29106040	      0.52839465	      0.91235929	     -0.11898710	     20.97199482	      0.01963121	     -6.20017319	     51.57515913	     11.77512110	      3.08425300	      0.00000000	      0.01530260	      0.67689486	    -12.57053327	     12.42623775	     14.98179052	      0.95292981	      0.00000000	      0.88214126	     -5.51106897	      0.55179454	     62.31739424	     10.46766503	     64.36090300	    112.76556285	     93.09373519	     45.30400078	     -0.48262963	     45.08009110	    113.62785839	     82.33429069
      3.86666670	      4.21258948	     -1.26194113	      1.54569508	      0.52878351	      0.91090947	     -0.11844171	     18.51795672	     -0.75006756	     -5.66101509	     47.16550816	     12.55626589	      2.78353908	      0.00000000	      0.14448069	      1.52503488	    -12.01724297	     11.83421611	     15.23197756	      1.44569772	      0.00000000	      0.85795542	     -5.80414203	      0.51840531	     62.73230451	     10.35445196	     64.28150889	    112.55289867	     93.30128544	     45.90039729	     -0.56373436	     45.06023621	    113.46929891	     82.78312450
      3.88333330	      3.34385506	     -0.66934737	      1.38316148	      0.52761314	      0.90960538	     -0.11757284	     17.10566790	     -1.43815911	     -4.88544696	     43.14416077	     13.35851080	      2.44679435	      0.00000000	      0.76045063	      2.31240092	    -11.64275697	     11.17580500	     15.24501830	      1.77967543	      0.00000000	      1.37926543	     -6.01246862	      0.79289575	     63.06595755	     10.16941823	     64.25226551	    112.43078672	     93.35323936	     46.21849863	     -0.49552315	     45.01095369	    113.64994217	     82.91328877
      3.90000000	      3.06593397	     -0.40586071	      1.15457812	      0.52657287	      0.90665353	     -0.11751602	     15.52632154	     -1.88967386	     -4.31250591	     39.60589945	     13.76212745	      1.83737043	      0.00000000	      0.74597740	      2.75641983	    -11.33212007	     10.36248956	     15.75334358	      2.68705720	      0.00000000	      1.10762144	     -5.90004416	      0.93361742	     63.26603048	      9.98955689	     64.49700285	    113.08173835	     93.60182671	     46.49466738	     -0.31559076	     45.16192629	    113.59907924	     83.52583169
      3.91666670	      2.39735118	     -0.11315344	      0.81826385	      0.52621300	      0.90363087	     -0.11598474	     14.94768014	     -2.45975513	     -3.70921831	     37.06746002	     14.49967310	      1.53834263	      0.00000000	      1.26842631	      3.19737721	    -10.60531498	      9.73527858	     16.20554183	      3.20625795	      0.00000000	      1.27186965	     -5.78183666	      1.29055750	     63.63173881	     10.16367163	     64.42803023	    113.23412054	     93.65078789	     46.75175824	     -0.12882363	     45.21627946	    113.81682812	     83.67595959
